<svg width="342" height="160" viewBox="0 0 342 160" fill="none" xmlns="http://www.w3.org/2000/svg">
<path d="M340.879 121.748V129.097H324.179V135.798H337.879V143.148H324.179V151.398H340.879V158.748H316.379V121.748H340.879Z" fill="#0A0A0A" stroke="#0A0A0A"/>
<path d="M295.024 120.998C299.243 120.998 302.818 122.045 305.719 124.169L306.253 124.574C308.877 126.645 310.743 129.373 311.85 132.742L312.013 133.24L311.508 133.38L304.658 135.28L304.188 135.41L304.046 134.944C303.405 132.846 302.335 131.248 300.848 130.121L300.845 130.119C299.369 128.985 297.442 128.398 295.024 128.398C292.816 128.398 291.009 128.889 289.575 129.84L289.574 129.839C288.149 130.795 287.068 132.147 286.336 133.914C285.6 135.69 285.225 137.798 285.225 140.248C285.225 142.698 285.6 144.805 286.336 146.582C287.068 148.348 288.149 149.7 289.574 150.656H289.575C291.009 151.606 292.816 152.097 295.024 152.097C297.442 152.097 299.369 151.511 300.845 150.377C302.335 149.231 303.405 147.632 304.046 145.55L304.189 145.086L304.658 145.216L311.508 147.116L312.013 147.256L311.85 147.754C310.669 151.347 308.625 154.211 305.719 156.327C302.818 158.45 299.243 159.498 295.024 159.498C291.35 159.498 288.15 158.698 285.442 157.077L285.441 157.076C282.757 155.459 280.685 153.195 279.228 150.298L279.227 150.296C277.786 147.398 277.074 144.044 277.074 140.248C277.074 136.452 277.786 133.097 279.227 130.2L279.228 130.198L279.508 129.662C280.946 127.02 282.925 124.936 285.441 123.42L285.442 123.419C288.15 121.798 291.35 120.998 295.024 120.998Z" fill="#0A0A0A" stroke="#0A0A0A"/>
<path d="M250.319 121.748L250.467 121.974L265.198 144.564V121.748H273.099V158.748H265.428L265.279 158.521L250.549 135.93V158.748H242.648V121.748H250.319Z" fill="#0A0A0A" stroke="#0A0A0A"/>
<path d="M228.038 121.748L228.146 122.101L239.146 158.101L239.343 158.748H231.299L231.189 158.395L228.983 151.248H216.168L213.996 158.393L213.889 158.748H205.842L206.039 158.101L217.039 122.101L217.147 121.748H228.038ZM218.401 143.898H226.715L222.525 130.326L218.401 143.898Z" fill="#0A0A0A" stroke="#0A0A0A"/>
<path d="M189.767 121.748V151.398H205.267V158.748H181.967V121.748H189.767Z" fill="#0A0A0A" stroke="#0A0A0A"/>
<path d="M166.856 121.748L166.964 122.101L177.964 158.101L178.161 158.748H170.117L170.008 158.395L167.802 151.248H154.986L152.814 158.393L152.707 158.748H144.66L144.857 158.101L155.857 122.101L155.966 121.748H166.856ZM157.22 143.898H165.533L161.344 130.326L157.22 143.898Z" fill="#0A0A0A" stroke="#0A0A0A"/>
<path d="M130.4 121.748L130.888 121.754C133.299 121.816 135.313 122.345 136.896 123.377L137.2 123.58C138.701 124.61 139.823 125.894 140.552 127.434C141.314 129.045 141.7 130.684 141.7 132.347C141.7 134.44 141.224 136.221 140.237 137.656L140.236 137.655C139.827 138.261 139.35 138.782 138.809 139.218C139.928 139.806 140.849 140.608 141.56 141.635L141.776 141.958C142.825 143.577 143.35 145.378 143.35 147.347C143.35 149.558 142.937 151.526 142.1 153.238L142.101 153.239C141.272 154.966 140.001 156.323 138.3 157.305L138.297 157.307C136.585 158.278 134.46 158.748 131.95 158.748H115.5V121.748H130.4ZM123.4 151.347H131.25C132.095 151.347 132.829 151.171 133.464 150.832C134.099 150.476 134.588 149.992 134.94 149.375L134.942 149.372C135.308 148.743 135.5 147.991 135.5 147.097C135.5 146.318 135.34 145.641 135.032 145.055C134.733 144.484 134.275 144.028 133.64 143.688L133.627 143.682C133.022 143.337 132.239 143.148 131.25 143.148H123.4V151.347ZM123.4 135.798H130.3C131.008 135.798 131.62 135.675 132.146 135.441C132.656 135.215 133.053 134.873 133.35 134.409C133.637 133.943 133.8 133.317 133.8 132.498C133.8 131.511 133.497 130.709 132.905 130.059C132.342 129.441 131.501 129.097 130.3 129.097H123.4V135.798Z" fill="#0A0A0A" stroke="#0A0A0A"/>
<path d="M308.909 44.5C317.348 44.5 324.049 46.4812 328.95 50.5039C333.835 54.5144 337.089 60.1765 338.734 67.4482L338.853 67.9756L338.318 68.0537L325.771 69.8799L325.346 69.9414L325.22 69.5312C324.071 65.7736 322.193 62.8 319.597 60.5869L319.592 60.583C317.05 58.3621 313.773 57.2202 309.718 57.1904H308.964C305.256 57.2445 302.181 58.1228 299.711 59.7979C297.064 61.5932 295.063 64.144 293.711 67.4727L293.71 67.4717C292.385 70.8096 291.716 74.7321 291.716 79.249C291.716 83.7658 292.386 87.6557 293.709 90.9307C295.06 94.1979 297.062 96.7197 299.711 98.5166C302.351 100.307 305.68 101.248 309.729 101.308H309.732C312.464 101.367 314.916 100.891 317.095 99.8916L317.098 99.8906C319.297 98.8954 321.155 97.3274 322.672 95.1719C324.097 93.1482 325.147 90.5702 325.81 87.4209H315.63V76.8311H339.939L340.003 77.2559C340.069 77.6851 340.115 78.4133 340.145 79.417C340.175 80.4163 340.19 81.0052 340.19 81.167C340.19 87.5369 338.912 93.2043 336.342 98.1562C333.773 103.107 330.145 106.997 325.46 109.816L325.457 109.817C320.764 112.61 315.242 113.998 308.909 113.998C304.756 113.998 300.797 113.255 297.036 111.771L297.033 111.77C293.267 110.252 289.93 108.021 287.025 105.081L287.023 105.08C284.141 102.134 281.865 98.4966 280.189 94.1797L280.188 94.1768C278.537 89.8468 277.718 84.8679 277.718 79.249C277.718 71.9114 279.099 65.6451 281.885 60.4717V60.4707C284.693 55.2823 288.458 51.3152 293.178 48.5859L293.179 48.585C297.923 45.8602 303.169 44.5001 308.909 44.5Z" fill="#0A0A0A" stroke="#0A0A0A"/>
<path d="M228.797 45.87L228.945 46.0995L256.278 88.5077V45.87H269.735V112.628H256.505L256.358 112.398L229.025 69.9891V112.628H215.568V45.87H228.797Z" fill="#0A0A0A" stroke="#0A0A0A"/>
<path d="M203.037 45.87V112.628H189.761V45.87H203.037Z" fill="#0A0A0A" stroke="#0A0A0A"/>
<path d="M156.328 45.87C156.973 45.87 157.826 45.9007 158.883 45.9618L158.882 45.9628C159.974 45.994 160.954 46.0853 161.821 46.2411L162.553 46.3661C166.173 47.0289 169.189 48.3092 171.579 50.2264H171.579C174.145 52.2606 176.033 54.8289 177.238 57.9227C178.437 60.9724 179.033 64.3694 179.033 68.1063C179.033 73.7018 177.656 78.5237 174.882 82.5468L174.881 82.5477C173.244 84.904 171.068 86.7215 168.371 88.0126L179.886 111.911L180.232 112.628H165.22L165.083 112.344L154.546 90.3436H141.663V112.628H128.386V45.87H156.328ZM141.663 77.744H155.786C156.402 77.744 157.08 77.7142 157.822 77.6542C158.545 77.5956 159.204 77.4796 159.799 77.3075L159.805 77.3055C161.383 76.8702 162.564 76.1564 163.388 75.1864C164.246 74.1444 164.828 73.0081 165.14 71.7743L165.142 71.7665C165.493 70.4625 165.666 69.243 165.666 68.1063C165.666 66.9699 165.494 65.7667 165.143 64.495L165.139 64.4823C164.827 63.2187 164.246 62.0854 163.393 61.078L163.388 61.0721C162.564 60.0712 161.382 59.3422 159.805 58.9071L159.799 58.9061C159.204 58.734 158.545 58.617 157.822 58.5585C157.08 58.4985 156.402 58.4686 155.786 58.4686H141.663V77.744Z" fill="#0A0A0A" stroke="#0A0A0A"/>
<circle cx="34" cy="34" r="32.75" transform="matrix(-1 0 0 1 123.054 45.15)" stroke="#0A0A0A" stroke-width="2.5"/>
<circle cx="89.0535" cy="79.15" r="29.5" fill="#0A0A0A" stroke="#0A0A0A"/>
<path d="M26.9971 45.87C31.6935 45.87 35.5439 46.826 38.5078 48.7821L39.0479 49.1444C41.7038 50.9884 43.6803 53.2815 44.9619 56.0223C46.3141 58.9143 46.9941 61.8483 46.9941 64.8192C46.9941 68.576 46.1491 71.7379 44.4268 74.2743L44.4277 74.2753C43.5844 75.5392 42.5795 76.595 41.416 77.4423C43.6502 78.5073 45.4552 80.0319 46.8154 82.0233L47.1973 82.5975C49.0475 85.4885 49.9736 88.699 49.9736 92.2177C49.9736 96.2046 49.2391 99.7349 47.7578 102.797L47.7588 102.798C46.3004 105.874 44.0629 108.293 41.0596 110.048L41.0566 110.05C38.0421 111.779 34.2786 112.628 29.7949 112.628H0.5V45.87H26.9971ZM13.957 99.9374H28.5312C30.0148 99.9374 31.33 99.6435 32.4873 99.0663L32.7168 98.9471C33.9283 98.2612 34.8677 97.3234 35.543 96.1278L35.5449 96.1239C36.2466 94.9028 36.6064 93.4545 36.6064 91.7616C36.6064 90.2785 36.3052 88.9735 35.7148 87.8358C35.1325 86.7136 34.2446 85.825 33.0322 85.1688L33.0205 85.162C31.8523 84.4866 30.3646 84.1327 28.5312 84.1327H13.957V99.9374ZM13.957 71.5341H26.8164C28.1414 71.5341 29.3036 71.3012 30.3125 70.8475C31.304 70.4017 32.0841 69.723 32.6631 68.8046C33.2336 67.8699 33.5381 66.6436 33.5381 65.0927C33.5381 63.1949 32.9587 61.6278 31.8154 60.3583C30.7011 59.121 29.0628 58.4686 26.8164 58.4686H13.957V71.5341Z" fill="#0A0A0A" stroke="#0A0A0A"/>
<path d="M95.2363 0.5V7.84961H78.5361V14.5498H92.2363V21.9004H78.5361V30.1504H95.2363V37.5H70.7363V0.5H95.2363Z" fill="#0A0A0A" stroke="#0A0A0A"/>
<path d="M41.8174 0.5V15.2998H56.918V0.5H64.7178V37.5H56.918V22.6504H41.8174V37.5H34.0176V0.5H41.8174Z" fill="#0A0A0A" stroke="#0A0A0A"/>
<path d="M31 0.5V7.84961H19.6504V37.5H11.8496V7.84961H0.5V0.5H31Z" fill="#0A0A0A" stroke="#0A0A0A"/>
</svg>
